<svg width="166" height="70" viewBox="0 0 166 70" fill="none" xmlns="http://www.w3.org/2000/svg">
<path d="M9.35855 41.6163C12.7998 47.3801 18.7345 49.1023 24.0866 45.9068C28.9388 43.0098 30.3182 38.0377 27.5792 33.4501C27.4037 33.1561 27.1337 33.038 27.0161 33.1082C26.9279 33.1609 26.8866 33.2254 26.898 33.3782C26.9986 35.7514 25.7196 37.7516 23.8964 38.8402C22.132 39.8936 19.8759 40.1237 17.6813 39.1204C12.987 36.9369 10.1834 29.6355 11.8302 28.6523C13.1535 27.8622 14.5292 30.0326 17.6425 32.6415C18.9382 33.7427 20.5947 33.711 21.8004 32.9912C23.2119 32.1484 23.9971 30.3234 22.7562 28.3118C20.9008 25.271 16.1451 24.3209 11.7928 26.9194C5.94081 30.4134 6.51421 36.8523 9.35855 41.6163Z" fill="black"/>
<path d="M42.1848 32.916C42.2888 32.6972 42.4616 32.6721 42.6595 32.8199C43.2971 33.2839 44.2551 33.5249 45.546 33.066L48.1599 32.1366C49.9026 31.5171 48.325 29.5335 47.8194 28.6227L43.3957 20.7808C41.8239 17.9954 38.5237 17.0967 34.8448 18.4046C32.5535 19.2192 30.0959 20.3837 29.3414 22.7603C28.5059 25.4201 30.4858 28.024 32.9061 27.1636C33.1643 27.0718 33.4755 26.9248 33.7638 26.7132C36.7987 24.6165 32.9587 21.0744 34.195 20.0533C34.7279 19.6094 35.2757 19.9235 36.3879 21.9272L38.5342 25.817C38.6467 26.0314 38.575 26.2387 38.3376 26.2867C37.4434 26.5319 36.3878 26.8345 35.7423 27.064C32.1602 28.3375 30.2583 30.7584 31.245 33.5337C32.1628 36.1154 35.1726 37.1174 38.2706 36.016C40.1746 35.3391 41.5329 34.4563 42.1848 32.916ZM39.5911 27.7676L40.8711 30.0388C41.6979 31.8532 41.2934 32.7603 40.7907 33.0844C39.9352 33.643 38.8208 33.1668 37.8168 31.161C36.7233 29.0053 37.3723 27.8658 38.1791 27.579C38.6309 27.4183 39.3316 27.2419 39.5911 27.7676Z" fill="black"/>
<path d="M58.5311 16.0558C58.4875 15.8201 58.6248 15.6205 58.8605 15.5769L60.9486 15.1908C62.2958 14.9416 62.0582 12.3385 61.0815 12.5191L58.3872 13.0173C58.1177 13.0672 57.8296 13.016 57.6575 12.8388C56.0389 11.4314 52.5898 7.47165 54.7939 6.95954C56.398 6.59323 58.2128 12.0743 61.7578 11.2794C64.3998 10.6863 64.821 7.12539 62.3666 5.90742C60.5994 5.01517 57.4536 5.14412 55.6412 5.51412C51.8143 6.29151 48.6607 7.88479 49.215 10.8822C49.5326 12.5998 51.245 13.5719 52.5907 13.8803C52.7379 13.9228 52.7291 14.0637 52.5271 14.1011L50.641 14.4499C49.2939 14.699 49.5315 17.3022 50.5082 17.1216L51.3165 16.9721C51.5522 16.9285 51.7518 17.0657 51.7954 17.3015L53.4645 26.3274C53.5767 26.9336 53.3319 28.0586 53.444 28.6648C53.6433 29.7426 54.7757 30.4039 56.0555 30.1672L59.154 29.5942C60.4338 29.3576 61.2547 28.335 61.0554 27.2572C60.9433 26.651 60.3124 25.688 60.2003 25.0817L58.5311 16.0558Z" fill="black"/>
<path d="M75.7577 14.7607C75.7453 14.5213 75.9074 14.3414 76.1469 14.329L78.2675 14.2192C79.6357 14.1483 79.7404 11.5364 78.7485 11.5878L76.0122 11.7295C75.7386 11.7437 75.4596 11.6552 75.3122 11.4571C73.8914 9.85021 70.9896 5.47349 73.2418 5.25393C74.88 5.10048 75.9626 10.7718 79.5811 10.4472C82.2779 10.2046 83.1611 6.72926 80.887 5.20086C79.2516 4.08523 76.116 3.80181 74.2707 3.93169C70.375 4.20208 67.0402 5.36941 67.1979 8.41356C67.2883 10.158 68.8588 11.3456 70.1527 11.8273C70.293 11.8886 70.2659 12.0272 70.0607 12.0378L68.1453 12.137C66.7771 12.2079 66.6724 14.8198 67.6643 14.7684L68.4852 14.7259C68.7246 14.7135 68.9045 14.8757 68.9169 15.1151L69.3917 24.2818C69.4236 24.8974 69.0339 25.9808 69.0658 26.5965C69.1225 27.691 70.1587 28.4947 71.4584 28.4274L74.6052 28.2644C75.905 28.197 76.8526 27.2906 76.7959 26.196C76.764 25.5804 76.2644 24.5431 76.2325 23.9274L75.7577 14.7607Z" fill="black"/>
<path d="M89.0934 18.6008C89.0143 18.3523 89.1639 18.2291 89.4025 18.2523L94.1751 18.7148C96.6978 18.9593 97.7251 17.2351 97.0128 14.9982C96.3797 13.0099 94.3575 11.5063 91.6644 11.2453C86.585 10.7531 83.6196 15.0767 83.1968 19.4402C82.7111 24.4515 85.4092 28.5669 89.9091 29.003C94.3749 29.4358 98.3827 26.0734 98.8485 21.2667C98.8881 20.8576 98.7309 20.7048 98.4384 20.8829C96.8668 21.8317 95.1402 22.2493 93.6061 22.1007C91.4925 21.8959 89.6859 20.654 89.0934 18.6008ZM89.2179 16.9612C88.976 16.9722 88.7847 16.816 88.7737 16.574C88.7091 14.3999 89.4011 12.2303 90.492 12.336C92.0601 12.488 91.9839 15.4055 91.8782 16.4964C91.855 16.735 91.6988 16.9263 91.4228 16.934L89.2179 16.9612Z" fill="black"/>
<path d="M107.964 9.66622C107.51 11.565 108.614 13.1319 110.746 13.6415C112.878 14.1511 114.572 13.253 115.026 11.3542C115.472 9.48877 114.367 7.92183 112.235 7.41225C110.103 6.90266 108.41 7.80078 107.964 9.66622ZM106.047 18.7161L104.192 26.4776C104.049 27.0773 103.369 28.0064 103.225 28.606C102.971 29.672 103.738 30.7357 105.003 31.0382L108.068 31.7708C109.334 32.0733 110.499 31.4714 110.754 30.4055C110.897 29.8059 110.711 28.6697 110.854 28.0701L113.673 16.2778C113.872 15.445 113.293 14.9194 112.321 14.863L108.613 14.6106C107.399 14.5318 106.425 15.0736 106.146 16.2395C105.955 17.039 106.214 18.0165 106.047 18.7161Z" fill="black"/>
<path d="M128.399 23.1392C128.074 23.3037 127.973 23.189 128.114 22.8395L128.766 21.2194C129.086 20.4251 128.592 19.8197 127.638 19.6202L124.009 18.8225C122.82 18.5652 121.776 18.9569 121.328 20.0688C121.021 20.8313 121.133 21.8364 120.864 22.5036L117.882 29.9057C117.651 30.4775 116.842 31.2959 116.611 31.8678C116.202 32.8844 116.803 34.0497 118.01 34.5361L120.933 35.7136C122.14 36.2 123.381 35.7769 123.791 34.7603C124.021 34.1885 124.005 33.0373 124.236 32.4654L126.859 25.9529C127.218 25.0634 128.064 24.7029 128.98 24.9978C129.85 25.3116 129.911 26.2594 129.156 28.1337L126.968 33.5661C126.635 34.3921 126.125 34.7407 125.792 35.5666C125.293 36.8056 126.143 37.8126 127.096 38.1966L130.464 39.5533C131.417 39.9372 132.619 39.7939 132.909 38.4336C133.018 37.8869 133.07 37.5754 133.211 37.0415C134.314 33.2027 135.019 31.0866 136.154 27.2606C136.847 24.9918 136.394 23.1844 134.043 22.2373C132.454 21.5974 130.157 22.2595 128.399 23.1392Z" fill="black"/>
<path d="M146.824 37.262C146.864 37.0043 147.053 36.9608 147.256 37.0879L151.321 39.6307C153.47 40.9747 155.158 39.8898 155.519 37.57C155.839 35.5081 154.7 33.2604 152.406 31.8255C148.079 29.1193 143.497 31.6663 141.172 35.3831C138.502 39.6516 139.081 44.5384 142.914 46.9359C146.718 49.3152 151.805 48.0935 154.366 43.9992C154.583 43.6508 154.511 43.4438 154.17 43.4727C152.34 43.6209 150.608 43.2246 149.302 42.4073C147.501 41.2812 146.438 39.3639 146.824 37.262ZM147.667 35.8501C147.445 35.752 147.344 35.5269 147.442 35.3054C148.354 33.3308 149.941 31.6976 150.87 32.2788C152.206 33.1143 150.836 35.6914 150.255 36.6206C150.128 36.8239 149.903 36.9255 149.652 36.8092L147.667 35.8501Z" fill="black"/>
<path d="M43.4986 50.387C43.393 50.1065 43.4979 49.8749 43.7784 49.7693L44.1991 49.6108C44.7039 49.4207 45.7318 49.514 46.2366 49.3239C47.134 48.9859 47.6134 48.1329 47.212 47.0672L47.0853 46.7306C46.684 45.6649 45.761 45.34 44.8635 45.6779C44.3587 45.8681 43.6477 46.6162 43.1429 46.8063L42.7222 46.9647C42.4418 47.0703 42.2101 46.9654 42.1045 46.6849L40.4146 42.1976C40.309 41.9172 40.4139 41.6855 40.6943 41.5799L41.7881 41.168C42.293 40.9779 43.5473 42.523 45.174 41.9104C46.0714 41.5724 46.4663 40.495 46.0649 39.4293L45.9488 39.1208C45.2622 37.2978 44.2377 37.0432 42.4708 37.7086L34.8143 40.5919C33.7485 40.9933 33.1993 42.0007 33.5372 42.8982C33.7274 43.403 34.4194 44.1351 34.6095 44.64L38.7497 55.6339C38.9398 56.1387 38.9026 57.1455 39.0927 57.6503C39.4307 58.5478 40.5081 58.9426 41.5738 58.5413L44.4345 57.464C45.5003 57.0626 46.0495 56.0552 45.7116 55.1577C45.5214 54.6529 44.8294 53.9208 44.6393 53.4159L43.4986 50.387Z" fill="black"/>
<path d="M59.9188 50.87C60.0354 50.693 60.1882 50.6922 60.3419 50.8441C60.8383 51.3233 61.6394 51.6479 62.8136 51.4062L65.1912 50.9167C66.7762 50.5904 65.6488 48.6807 65.3207 47.8304L62.4348 40.4998C61.4092 37.896 58.6579 36.7184 55.3116 37.4072C53.2275 37.8362 50.957 38.5484 50.0159 40.5168C48.9704 42.7208 50.3715 45.2167 52.573 44.7635C52.8078 44.7152 53.0953 44.6254 53.3707 44.4769C56.2542 43.0266 53.3544 39.493 54.5493 38.7574C55.0647 38.4372 55.5015 38.7756 56.2232 40.6464L57.6131 44.2767C57.6847 44.4762 57.5975 44.6471 57.386 44.66C56.5814 44.7645 55.63 44.8991 55.0429 45.02C51.7847 45.6907 49.8439 47.5589 50.3636 50.0833C50.847 52.4315 53.3342 53.6635 56.1521 53.0835C57.8839 52.7269 59.1677 52.1261 59.9188 50.87ZM58.2933 46.0949L59.1281 48.2178C59.6253 49.8901 59.1652 50.6274 58.6903 50.8475C57.8814 51.2282 56.9732 50.6809 56.3456 48.8212C55.6584 46.8209 56.3586 45.9118 57.0924 45.7608C57.5034 45.6762 58.1319 45.608 58.2933 46.0949Z" fill="black"/>
<path d="M73.8307 49.4249C77.7524 49.2449 80.8059 45.8347 80.6121 41.6135C80.5956 41.2543 80.4404 41.1414 80.2092 41.332C78.8788 42.4131 77.3468 43.0235 75.9697 43.0867C74.5926 43.1499 73.3704 42.666 72.6051 41.6812C71.072 39.6515 71.2767 34.9621 72.5939 34.9016C73.6716 34.8521 73.3322 36.6077 74.3799 39.1697C74.8213 40.2894 75.9551 40.8073 77.0328 40.7579C78.2901 40.7001 79.5104 39.8341 79.4049 38.1889C79.2935 35.764 76.6771 33.6642 73.1445 33.8263C68.4145 34.0435 66.6527 38.1444 66.8287 41.9764C67.0307 46.3771 69.879 49.6064 73.8307 49.4249Z" fill="black"/>
<path d="M91.4978 37.5709C92.6916 37.6796 93.107 35.4304 92.2415 35.3516L90.0628 35.1533C89.7942 35.1289 89.6043 34.9009 89.6287 34.6323L89.8868 31.797C89.9411 31.2001 89.5288 30.7714 88.9915 30.7225C88.7528 30.7007 88.476 30.7658 88.221 30.9232C86.4681 31.9974 84.1509 33.3212 82.4821 34.4633C81.4863 35.1551 81.771 36.6555 82.9322 36.7913C83.2008 36.8158 83.3907 37.0437 83.3663 37.3123C83.1327 39.879 82.9018 42.4159 82.6682 44.9826C82.4183 47.7283 83.7774 49.3266 86.2247 49.5493C89.3286 49.8318 90.9487 47.5719 91.2662 46.7281C91.3856 46.4079 91.2961 46.0688 90.8457 46.0579C89.2531 46.0333 88.6698 45.1677 88.7785 43.9739L89.3354 37.8556C89.3598 37.587 89.5877 37.3971 89.8563 37.4215L91.4978 37.5709Z" fill="black"/>
<path d="M103.985 37.2225C99.3245 36.0936 95.5227 38.0403 94.3444 42.9044C93.1661 47.7685 95.6556 51.2392 100.316 52.3681C104.976 53.497 108.778 51.5503 109.956 46.6862C111.134 41.8221 108.645 38.3514 103.985 37.2225ZM102.076 51.592C100.79 51.5578 100.504 49.2994 100.551 44.7779C100.592 40.4092 101.025 37.9855 102.224 37.9986C103.489 37.9966 103.796 40.2912 103.684 44.8277C103.549 49.2044 103.152 51.606 102.076 51.592Z" fill="black"/>
<path d="M117.755 47.9042C117.651 48.1531 117.442 48.0333 117.545 47.7843L118.687 45.0456C119.344 43.4688 118.945 42.5559 117.497 42.2124L115.067 41.6545C114.03 41.4171 113.112 41.749 112.709 42.7172C112.432 43.3812 112.52 44.2618 112.278 44.8427L109.592 51.2882C109.385 51.7862 108.668 52.4939 108.46 52.9918C108.091 53.877 108.605 54.9029 109.657 55.3409L112.202 56.4014C113.253 56.8394 114.343 56.4821 114.712 55.5969C114.92 55.0989 114.917 54.0915 115.125 53.5936L116.958 49.1951C119.486 49.8268 122.813 51.1155 124.026 47.6599C124.484 46.3252 124.388 44.9212 122.921 44.3103C120.874 43.4573 119.205 44.58 117.755 47.9042Z" fill="black"/>
</svg>
